<!--?xml version="1.0" encoding="utf-8"?-->
<!-- Generator: Adobe Illustrator 18.1.1, SVG Export Plug-In . SVG Version: 6.00 Build 0)  -->

<svg version="1.1" id="_x32_" xmlns="http://www.w3.org/2000/svg" xmlns:xlink="http://www.w3.org/1999/xlink" x="0px" y="0px" viewBox="0 0 512 512" style="width: 256px; height: 256px; opacity: 1;" xml:space="preserve">
<style type="text/css">
	.st0{fill:#673AB7;}
</style>
<g>
	<path class="st0" d="M508.581,93.091c0.274-10.305-6.414-19.3-12.797-27.54c-0.884,10.346-9.968,27.444-14.293,36.278
		L318.422,435.259c-12.653,25.852-28.449,57.669-63.159,53.963c-1.326-0.081-232.016-24.309-232.016-24.309
		c6.543,10.306,13.875,23.569,26.801,24.952l190.015,20.024c22.009,2.363,42.91,5.45,62.716-7.596
		c21.953-14.43,33.328-40.651,44.293-63.054l154.58-325.439c3.248-6.648,6.624-13.128,6.929-20.7
		C508.613,92.376,508.581,92.986,508.581,93.091z"></path>
	<path class="st0" d="M239.017,464.985c19.204,2.058,42.412-11.534,51.511-30.152l52.99-108.311L473.453,60.816
		c9.132-18.665,0.868-35.603-18.328-37.668L241.574,0.206c-19.244-2.058-42.395,11.503-51.519,30.168L7.122,404.391
		c-9.107,18.617-0.908,35.586,18.344,37.652L239.017,464.985z M160.224,411.071c-4.132,8.425-14.598,14.526-23.264,13.602
		c-8.682-0.933-12.347-8.545-8.224-16.994c4.123-8.408,14.525-14.51,23.175-13.585C160.577,395.018,164.34,402.655,160.224,411.071z
		 M219.677,48.421l210.448,22.604L283.631,370.46L73.182,347.856L219.677,48.421z"></path>
</g>
</svg>
