<?xml version="1.0" encoding="UTF-8" standalone="no"?>
<!-- Created with Inkscape (http://www.inkscape.org/) -->

<svg
   width="120mm"
   height="40mm"
   viewBox="0 0 120 40"
   version="1.1"
   id="svg5"
   inkscape:version="1.2 (dc2aedaf03, 2022-05-15)"
   sodipodi:docname="nostx.svg"
   inkscape:export-filename="nostxlogo.svg"
   inkscape:export-xdpi="96"
   inkscape:export-ydpi="96"
   xmlns:inkscape="http://www.inkscape.org/namespaces/inkscape"
   xmlns:sodipodi="http://sodipodi.sourceforge.net/DTD/sodipodi-0.dtd"
   xmlns="http://www.w3.org/2000/svg"
   xmlns:svg="http://www.w3.org/2000/svg">
  <sodipodi:namedview
     id="namedview7"
     pagecolor="#ffffff"
     bordercolor="#eeeeee"
     borderopacity="1"
     inkscape:showpageshadow="0"
     inkscape:pageopacity="1"
     inkscape:pagecheckerboard="false"
     inkscape:deskcolor="#505050"
     inkscape:document-units="mm"
     showgrid="true"
     borderlayer="true"
     showguides="true"
     inkscape:zoom="1.829812"
     inkscape:cx="265.87431"
     inkscape:cy="161.492"
     inkscape:window-width="1918"
     inkscape:window-height="1520"
     inkscape:window-x="953"
     inkscape:window-y="0"
     inkscape:window-maximized="0"
     inkscape:current-layer="layer2"
     showborder="true"
     shape-rendering="crispEdges"
     inkscape:lockguides="false">
    <inkscape:grid
       type="xygrid"
       id="grid687"
       units="mm"
       spacingx="0.49999999"
       spacingy="0.49999999"
       dotted="false"
       snapvisiblegridlinesonly="true"
       visible="true"
       enabled="true"
       empspacing="5" />
    <sodipodi:guide
       position="0,40"
       orientation="0,453.54331"
       id="guide277"
       inkscape:locked="false" />
    <sodipodi:guide
       position="120,40"
       orientation="151.1811,0"
       id="guide279"
       inkscape:locked="false" />
    <sodipodi:guide
       position="120,0"
       orientation="0,-453.54331"
       id="guide281"
       inkscape:locked="false" />
    <sodipodi:guide
       position="0,0"
       orientation="-151.1811,0"
       id="guide283"
       inkscape:locked="false" />
  </sodipodi:namedview>
  <defs
     id="defs2" />
  <g
     inkscape:groupmode="layer"
     id="layer2"
     inkscape:label="Layer 2"
     style="display:inline">
    <path
       id="rect706"
       style="display:inline;stroke-width:0.264583"
       d="M 16.499768 0 L 7.4998006 16.000057 L 7.4998006 40.000142 C 7.4999999 40 103.50014 40.000142 103.50014 40.000142 L 112.50011 24.000085 L 112.50011 0 L 16.499768 0 z M 16.843933 2.5001058 L 17.843872 2.5001058 L 8.9999674 18.222144 L 8.9999674 16.444474 L 16.843933 2.5001058 z M 34.34364 2.5001058 L 35.344096 2.5001058 L 31.687988 8.9999674 L 30.687533 8.9999674 L 34.34364 2.5001058 z M 51.843864 2.5001058 L 52.843803 2.5001058 L 49.187695 8.9999674 L 48.187756 8.9999674 L 51.843864 2.5001058 z M 69.344088 2.5001058 L 70.344027 2.5001058 L 66.687919 8.9999674 L 65.68798 8.9999674 L 69.344088 2.5001058 z M 86.843795 2.5001058 L 87.843734 2.5001058 L 84.187626 8.9999674 L 83.187687 8.9999674 L 86.843795 2.5001058 z M 104.34402 2.5001058 L 105.34396 2.5001058 L 101.68785 8.9999674 L 100.68791 8.9999674 L 104.34402 2.5001058 z M 21.774382 12.189437 L 27.336833 12.189437 L 38.29637 23.390304 L 38.29637 16.402616 C 38.29637 15.546859 38.223236 14.891298 38.076746 14.435811 C 37.93025 13.973428 37.719421 13.666245 37.444743 13.514421 C 37.188376 13.383295 36.767229 13.255721 36.181254 13.131498 C 35.604435 13.007274 35.165134 12.938078 34.862988 12.924276 L 34.862988 12.189437 L 42.787569 12.189437 L 42.787569 12.924276 C 42.531203 12.931176 42.137285 12.986637 41.606246 13.090157 C 41.075202 13.193676 40.695162 13.300646 40.466264 13.411068 C 40.136651 13.5836 39.912464 13.914813 39.793437 14.404806 C 39.683565 14.894794 39.628589 15.516015 39.628589 16.268258 L 39.628589 27.023674 L 38.43383 27.023674 L 26.622664 15.005286 L 26.622664 22.582601 C 26.622664 23.431457 26.691514 24.084105 26.828853 24.539587 C 26.975348 24.995074 27.194738 25.319418 27.487728 25.512655 C 27.698314 25.664479 28.133331 25.805794 28.792558 25.936918 C 29.45178 26.068043 29.886801 26.137239 30.097388 26.144141 L 30.097388 26.878979 L 22.104077 26.878979 L 22.104077 26.144141 C 22.351288 26.130341 22.768155 26.064579 23.35413 25.947253 C 23.940105 25.823034 24.306276 25.712625 24.452771 25.616007 C 24.773229 25.422774 24.992619 25.129328 25.111646 24.735958 C 25.230669 24.335682 25.290446 23.656083 25.290446 22.696806 L 25.290446 15.460555 C 25.290446 15.143095 25.217316 14.825619 25.070821 14.508158 C 24.924326 14.190703 24.727365 13.945852 24.48016 13.773319 C 24.150546 13.54558 23.701656 13.35224 23.133988 13.19351 C 22.575481 13.027879 22.122303 12.938078 21.774382 12.924276 L 21.774382 12.189437 z M 67.897664 12.189437 L 84.872856 12.189437 L 84.872856 16.174723 L 83.92511 16.174723 C 83.842706 15.926277 83.691648 15.633354 83.471908 15.29519 C 83.261321 14.950126 83.023261 14.62578 82.757739 14.322123 C 82.483063 14.004664 82.180947 13.728394 81.851335 13.49375 C 81.530877 13.252204 81.219686 13.114328 80.917542 13.079822 C 80.633707 13.052215 80.276617 13.03161 79.846289 13.01781 C 79.41596 13.00401 79.017767 12.997139 78.65153 12.997139 L 77.854679 12.997139 L 77.854679 24.746293 C 77.854679 24.974036 77.919251 25.184542 78.047432 25.377779 C 78.175616 25.564114 78.399802 25.708858 78.72026 25.812378 C 78.885065 25.860685 79.228283 25.926447 79.750171 26.009265 C 80.281214 26.092081 80.693281 26.137239 80.986271 26.144141 L 80.986271 26.878979 L 71.784766 26.878979 L 71.784766 26.144141 C 72.04113 26.130341 72.430249 26.102355 72.952136 26.060942 C 73.48318 26.019535 73.849347 25.968025 74.050777 25.905912 C 74.352922 25.816195 74.572312 25.688621 74.709652 25.52299 C 74.856146 25.350457 74.929793 25.122263 74.929793 24.839311 L 74.929793 12.997139 L 74.132943 12.997139 C 73.849109 12.997139 73.496815 13.00401 73.075643 13.01781 C 72.654471 13.02471 72.251481 13.045315 71.866931 13.079822 C 71.564786 13.107428 71.248799 13.245304 70.919185 13.49375 C 70.598729 13.735295 70.301412 14.011565 70.026733 14.322123 C 69.752057 14.632682 69.509199 14.963894 69.298612 15.315861 C 69.088027 15.660926 68.941766 15.946981 68.859363 16.174723 L 67.897664 16.174723 L 67.897664 12.189437 z M 63.151701 16.371611 L 64.140271 16.371611 L 64.34646 19.653064 L 63.398714 19.653064 C 63.20644 18.921528 62.790091 18.328295 62.149178 17.872811 C 61.517421 17.410423 60.743464 17.179313 59.827873 17.179313 C 59.077087 17.179313 58.486731 17.320623 58.056405 17.603577 C 57.626076 17.886528 57.410966 18.228047 57.410966 18.62832 C 57.410966 18.938879 57.4793 19.197978 57.616638 19.405017 C 57.763133 19.612056 57.978243 19.787708 58.262077 19.932633 C 58.536755 20.07066 58.880488 20.201668 59.292505 20.325891 C 59.713676 20.443213 60.230903 20.578172 60.844348 20.730001 C 61.44864 20.874928 62.016042 21.04371 62.547087 21.236947 C 63.087284 21.430181 63.531379 21.644123 63.879305 21.878768 C 64.254698 22.127215 64.543455 22.413786 64.744885 22.738147 C 64.946315 23.062509 65.046676 23.459484 65.046676 23.928772 C 65.046676 24.874248 64.575349 25.647081 63.632292 26.247493 C 62.698389 26.847906 61.485132 27.148214 59.992721 27.148214 C 59.20531 27.148214 58.477255 27.041243 57.808875 26.827303 C 57.149648 26.613363 56.678322 26.416592 56.394491 26.237158 L 56.119572 26.909985 L 55.089661 26.909985 L 54.952201 23.359298 L 55.899947 23.359298 C 55.973194 23.628447 56.129048 23.942491 56.367102 24.301359 C 56.605156 24.660227 56.893397 24.984573 57.232166 25.274426 C 57.589245 25.578083 58.015187 25.833232 58.509607 26.040271 C 59.01318 26.24731 59.576306 26.350846 60.19891 26.350846 C 61.077877 26.350846 61.755235 26.202668 62.231344 25.905912 C 62.70745 25.602257 62.945512 25.17094 62.945512 24.611934 C 62.945512 24.322082 62.867585 24.073283 62.711934 23.866243 C 62.565441 23.652305 62.34605 23.466351 62.05306 23.307621 C 61.750915 23.148891 61.379951 23.007064 60.940466 22.882841 C 60.500983 22.751716 60.010986 22.62414 59.470789 22.499919 C 59.04046 22.4033 58.56006 22.272292 58.029016 22.106661 C 57.50713 21.934128 57.058238 21.733924 56.682845 21.506181 C 56.279984 21.264635 55.950124 20.967762 55.693758 20.615796 C 55.437392 20.26383 55.309285 19.849685 55.309285 19.373494 C 55.309285 18.538439 55.721355 17.83137 56.545386 17.25166 C 57.369417 16.671953 58.47272 16.381946 59.855261 16.381946 C 60.386305 16.381946 60.926481 16.433972 61.475834 16.537492 C 62.034346 16.641011 62.487515 16.765152 62.835441 16.910079 L 63.151701 16.371611 z M 47.495809 16.381946 C 49.39108 16.381946 50.951836 16.86529 52.178727 17.83147 C 53.414774 18.790748 54.032878 20.070966 54.032878 21.672062 C 54.032878 22.389794 53.881821 23.096868 53.579675 23.793896 C 53.277533 24.484026 52.847306 25.070904 52.288798 25.553996 C 51.657042 26.106097 50.924703 26.516811 50.091516 26.785962 C 49.25833 27.055113 48.324237 27.189555 47.28962 27.189555 C 46.428966 27.189555 45.609624 27.068849 44.831372 26.827303 C 44.053121 26.578856 43.361885 26.219655 42.757597 25.750366 C 42.162462 25.287982 41.686341 24.725652 41.32926 24.063131 C 40.981338 23.393704 40.807328 22.64491 40.807328 21.816756 C 40.807328 20.222561 41.420635 18.918305 42.647526 17.903817 C 43.883574 16.889328 45.499823 16.381946 47.495809 16.381946 z M 83.871883 16.671851 L 89.286023 16.671851 L 89.286023 17.355013 C 89.016788 17.355013 88.751544 17.368748 88.490723 17.396354 C 88.229902 17.423961 88.099532 17.48629 88.099532 17.582906 C 88.099532 17.645019 88.12501 17.713699 88.175496 17.789612 C 88.225976 17.865526 88.28891 17.948458 88.364632 18.038175 C 88.549731 18.272819 88.835954 18.635455 89.222978 19.125448 C 89.618415 19.61544 90.043502 20.132605 90.497835 20.677808 C 90.79231 20.346545 91.132972 19.960388 91.519995 19.518705 C 91.915432 19.077022 92.277069 18.656009 92.6052 18.255733 C 92.638853 18.207427 92.672317 18.148532 92.705969 18.079517 C 92.739623 18.003602 92.756612 17.931489 92.756612 17.862476 C 92.756612 17.717548 92.609252 17.60371 92.314779 17.520894 C 92.028716 17.431178 91.755495 17.368849 91.494674 17.334342 L 91.494674 16.671851 L 96.088192 16.671851 L 96.088192 17.313672 C 95.440347 17.451698 94.935856 17.617563 94.574072 17.810799 C 94.212293 17.997135 93.905089 18.214509 93.652681 18.462956 C 93.375033 18.745909 93.042866 19.094292 92.655843 19.50837 C 92.277233 19.922448 91.742751 20.501941 91.05284 21.247282 C 91.818474 22.130648 92.44137 22.855402 92.920943 23.421309 C 93.400515 23.987216 93.884031 24.570143 94.372017 25.170557 C 94.616013 25.474214 94.885246 25.716143 95.17972 25.895577 C 95.482608 26.068109 95.894698 26.168212 96.416337 26.195817 L 96.416337 26.878979 L 90.712292 26.878979 L 90.712292 26.195817 C 91.090903 26.16131 91.410589 26.126454 91.671407 26.091947 C 91.940641 26.057441 92.075 25.968157 92.075 25.82323 C 92.075 25.761117 92.033045 25.664448 91.94891 25.533325 C 91.864774 25.4022 91.780865 25.280977 91.696729 25.170557 C 91.486391 24.901406 91.195661 24.542721 90.825464 24.094137 C 90.463684 23.63865 90.018134 23.096931 89.488078 22.468913 C 89.050572 22.917498 88.646459 23.35568 88.276265 23.783561 C 87.906068 24.204541 87.518946 24.653026 87.115096 25.129215 C 87.056196 25.198229 86.993266 25.284595 86.92596 25.388114 C 86.867067 25.491634 86.837594 25.574566 86.837594 25.636678 C 86.837594 25.788507 86.955482 25.916081 87.19106 26.0196 C 87.435055 26.116219 87.796693 26.181981 88.276265 26.216488 L 88.276265 26.878979 L 83.669828 26.878979 L 83.669828 26.237158 C 84.241948 26.099132 84.700498 25.933267 85.045455 25.740031 C 85.398826 25.539893 85.723014 25.295046 86.017489 25.005192 C 86.27831 24.72914 86.639951 24.349335 87.102694 23.866243 C 87.573853 23.383153 88.17976 22.727595 88.920154 21.899438 C 88.491064 21.395643 87.965077 20.78181 87.342472 20.057174 C 86.728284 19.325635 86.219287 18.718154 85.815434 18.235063 C 85.596683 17.972813 85.344435 17.762307 85.058374 17.603577 C 84.780726 17.437945 84.385109 17.355013 83.871883 17.355013 L 83.871883 16.671851 z M 47.46842 17.168978 C 46.763417 17.168978 46.15867 17.299986 45.655094 17.562236 C 45.160677 17.824482 44.758201 18.183169 44.446899 18.638656 C 44.153913 19.059632 43.947876 19.539546 43.828849 20.077844 C 43.709822 20.616146 43.650049 21.136744 43.650049 21.64054 C 43.650049 22.303062 43.718899 22.917417 43.856238 23.483321 C 44.002732 24.042327 44.231716 24.542841 44.543018 24.984521 C 44.854316 25.426205 45.243439 25.774588 45.710388 26.029936 C 46.186496 26.27838 46.772573 26.402523 47.46842 26.402523 C 48.612909 26.402523 49.519255 25.984941 50.187634 25.149886 C 50.856017 24.314831 51.190157 23.162704 51.190157 21.692733 C 51.190157 21.175135 51.121307 20.629979 50.983968 20.057174 C 50.84663 19.477464 50.640596 18.987255 50.365918 18.586979 C 50.072928 18.159101 49.688608 17.817581 49.2125 17.562236 C 48.736392 17.299986 48.155115 17.168978 47.46842 17.168978 z M 110.99994 21.777999 L 110.99994 23.555668 L 103.15598 37.500037 L 102.15604 37.500037 L 110.99994 21.777999 z M 18.312061 31.000175 L 19.312 31.000175 L 15.655892 37.500037 L 14.655953 37.500037 L 18.312061 31.000175 z M 35.812284 31.000175 L 36.812223 31.000175 L 33.156116 37.500037 L 32.156177 37.500037 L 35.812284 31.000175 z M 53.311991 31.000175 L 54.312447 31.000175 L 50.65634 37.500037 L 49.655884 37.500037 L 53.311991 31.000175 z M 70.812215 31.000175 L 71.812154 31.000175 L 68.156047 37.500037 L 67.156108 37.500037 L 70.812215 31.000175 z M 88.312439 31.000175 L 89.312378 31.000175 L 85.65627 37.500037 L 84.656331 37.500037 L 88.312439 31.000175 z " />
  </g>
  <g
     inkscape:label="Layer 1"
     inkscape:groupmode="layer"
     id="layer1">
    <g
       id="g346">
      <g
         id="g349" />
    </g>
  </g>
</svg>
