<?xml version="1.0" encoding="UTF-8" standalone="no"?>
<!-- Created with Inkscape (http://www.inkscape.org/) -->

<svg
   width="120mm"
   height="19.999998mm"
   viewBox="0 0 120 19.999998"
   version="1.1"
   id="svg5"
   xmlns="http://www.w3.org/2000/svg"
   xmlns:svg="http://www.w3.org/2000/svg">
  <defs
     id="defs2" />
  <g
     id="layer2"
     style="display:inline"
     transform="translate(0,-2.5000001)">
    <path
       id="rect706"
       style="display:inline;fill:#ffffff;stroke-width:0.387372"
       d="m 0,2.5 v 0.9797775 c 0.55933771,0.0184 1.2879149,0.1381363 2.1858058,0.3589759 0.9126238,0.2116383 1.6342944,0.4694297 2.1642055,0.7730725 0.3974195,0.2300423 0.7140758,0.5565143 0.9495919,0.9797777 0.235516,0.423278 0.3530852,0.846576 0.3530852,1.2698526 v 9.6482588 c 0,1.279019 -0.096107,2.185151 -0.2874529,2.718848 -0.1913563,0.524482 -0.5440649,0.915754 -1.0592559,1.173389 -0.235516,0.128825 -0.8242071,0.276041 -1.7662577,0.441658 -0.9420504,0.156433 -1.61224426,0.244115 -2.00967856,0.262515 v 0.979776 H 13.380688 V 21.106125 C 13.042133,21.096923 12.342753,21.00466 11.282946,20.82983 10.223124,20.654999 9.5237564,20.466575 9.1852031,20.26415 8.7141717,20.006503 8.3614636,19.574048 8.1259474,18.966737 7.9051512,18.359439 7.7944622,17.489235 7.7944622,16.357443 V 6.2544357 L 26.782977,22.278827 h 1.920784 V 7.9383851 c 0,-1.0029828 0.08839,-1.8312776 0.265022,-2.4845831 0.191357,-0.6533189 0.551776,-1.0949327 1.081687,-1.3249736 0.367993,-0.1472281 0.978977,-0.2898536 1.83272,-0.4278779 0.85373,-0.1380256 1.487034,-0.211973 1.899184,-0.221173 V 2.5 H 21.042223 v 0.9797775 c 0.485753,0.0184 1.192014,0.1106659 2.119344,0.2762939 0.942052,0.1656294 1.619125,0.3357266 2.03128,0.51056 0.441592,0.2024237 0.780537,0.6120111 1.016054,1.2285102 0.235504,0.6073113 0.353086,1.4813924 0.353086,2.6223861 V 17.434372 L 8.9426136,2.5 Z m 74.151243,0 v 5.3136727 h 1.5461 c 0.132472,-0.3036469 0.367624,-0.6850573 0.706171,-1.1451403 0.338552,-0.4692857 0.728998,-0.9108981 1.170579,-1.3249736 0.441595,-0.4140674 0.919593,-0.7824311 1.434773,-1.1044885 0.529913,-0.3312588 1.03792,-0.515092 1.523668,-0.5518997 0.618231,-0.046013 1.266108,-0.073482 1.943216,-0.082682 0.677103,-0.0184 1.243482,-0.027562 1.699794,-0.027562 H 85.45662 V 19.366366 c 0,0.377259 -0.118405,0.681522 -0.353915,0.911564 -0.220798,0.22084 -0.573506,0.390937 -1.059256,0.510559 -0.323835,0.08281 -0.912512,0.151496 -1.766258,0.206705 -0.839017,0.05521 -1.46461,0.09253 -1.876752,0.110931 v 0.979776 h 14.793029 v -0.979776 c -0.471029,-0.0092 -1.13351,-0.06941 -1.987247,-0.179833 -0.839026,-0.110426 -1.390814,-0.198105 -1.655762,-0.262514 -0.515192,-0.138025 -0.875612,-0.331016 -1.081687,-0.579461 -0.206069,-0.257647 -0.309886,-0.53832 -0.309886,-0.841974 V 3.5769274 h 1.281077 c 0.588791,0 1.228958,0.0092 1.920785,0.027562 0.691826,0.0184 1.265911,0.045883 1.722226,0.082682 0.485741,0.046013 0.986043,0.2298408 1.501236,0.5518997 0.5299,0.3128562 1.015621,0.68122 1.457203,1.1044886 0.426872,0.4048728 0.809596,0.8373374 1.148151,1.2974124 0.353259,0.4508818 0.596121,0.8414494 0.7286,1.1727015 h 1.523666 V 2.5 Z M 66.521277,8.0761879 66.012834,8.79414 C 65.453485,8.6009053 64.724934,8.4353852 63.827028,8.2973609 62.943856,8.1593353 62.07542,8.0899679 61.221674,8.0899679 c -2.222661,0 -3.996437,0.3866796 -5.321203,1.1596092 -1.324766,0.7729409 -1.987247,1.7156989 -1.987247,2.8290899 0,0.634917 0.205953,1.187106 0.618105,1.65639 0.412154,0.469284 0.942464,0.865111 1.590131,1.187171 0.60351,0.303654 1.325191,0.570591 2.164205,0.800633 0.853747,0.22084 1.626074,0.395515 2.317902,0.52434 0.868454,0.16562 1.656226,0.335726 2.362763,0.510558 0.70655,0.16563 1.302939,0.354731 1.78869,0.566369 0.471033,0.211639 0.82375,0.459582 1.059255,0.744824 0.250236,0.276051 0.375518,0.607787 0.375518,0.994247 0,0.745335 -0.382735,1.320426 -1.14815,1.72529 -0.765429,0.395672 -1.854408,0.593241 -3.267493,0.593241 -1.000945,0 -1.906274,-0.138047 -2.715851,-0.414097 -0.794866,-0.27605 -1.47965,-0.616246 -2.05371,-1.021119 -0.54463,-0.38646 -1.008027,-0.818925 -1.390741,-1.297412 -0.382714,-0.478487 -0.633276,-0.897215 -0.751033,-1.256072 h -1.523668 l 0.220991,4.734213 H 55.2159 l 0.44198,-0.897096 c 0.4563,0.239243 1.214048,0.501603 2.273871,0.786854 1.074529,0.285251 2.245013,0.427877 3.510914,0.427877 2.399296,0 4.349842,-0.400407 5.851247,-1.200951 1.516121,-0.800536 2.273869,-1.830986 2.273869,-3.091604 0,-0.625712 -0.161348,-1.155008 -0.485181,-1.587487 -0.323831,-0.432478 -0.788061,-0.81457 -1.391572,-1.14583 -0.559352,-0.312858 -1.27332,-0.598118 -2.141773,-0.855754 -0.853748,-0.257648 -1.765946,-0.482689 -2.737451,-0.675923 -0.986212,-0.202438 -1.817758,-0.382381 -2.494859,-0.538809 -0.66239,-0.165629 -1.215,-0.340306 -1.656593,-0.52434 -0.456313,-0.193226 -0.80214,-0.427432 -1.037656,-0.703483 -0.220795,-0.276049 -0.330654,-0.621512 -0.330654,-1.035587 0,-0.533687 0.345827,-0.989055 1.037656,-1.3663134 0.691816,-0.3772696 1.640928,-0.5656813 2.847945,-0.5656813 1.471964,0 2.716252,0.3081441 3.731903,0.9246567 1.030372,0.6073 1.699734,1.398285 2.008849,2.373652 h 1.523667 L 68.110577,8.0761879 Z m -25.169584,0.01378 c -3.20888,0 -5.807308,0.6765102 -7.794463,2.0291451 -1.972434,1.352634 -2.95844,3.091648 -2.95844,5.217211 0,1.10419 0.27976,2.102581 0.839097,2.995143 0.574071,0.883347 1.339521,1.633128 2.296302,2.249629 0.97149,0.625714 2.082789,1.104644 3.333956,1.435905 1.251168,0.322058 2.568419,0.482999 3.952063,0.482999 1.663319,0 3.165054,-0.179255 4.504538,-0.53812 1.339486,-0.358865 2.516865,-0.906486 3.532516,-1.642608 0.897893,-0.644118 1.589572,-1.426616 2.07531,-2.346782 0.485753,-0.929357 0.728603,-1.872128 0.728603,-2.829089 0,-2.134765 -0.993718,-3.841729 -2.980873,-5.12075 -1.97243,-1.2882229 -4.481645,-1.9326831 -7.528609,-1.9326831 z m 58.480904,0.3865369 v 0.9108756 c 0.825093,0 1.461113,0.1105722 1.907493,0.3314162 0.45989,0.2116385 0.86542,0.4923104 1.2171,0.8419744 0.64926,0.64411 1.46757,1.454085 2.45498,2.429462 1.00095,0.966168 1.84656,1.784618 2.5364,2.456333 -1.1903,1.1042 -2.16442,1.978278 -2.92189,2.622386 -0.74394,0.644117 -1.32534,1.15052 -1.74465,1.518587 -0.47342,0.386469 -0.99461,0.712929 -1.56272,0.979777 -0.55458,0.257646 -1.29177,0.478798 -2.211551,0.662831 v 0.855754 h 7.405651 v -0.883314 c -0.77099,-0.04601 -1.3524,-0.133691 -1.74465,-0.262515 -0.37873,-0.138018 -0.56827,-0.308121 -0.56827,-0.510558 0,-0.08281 0.0474,-0.193392 0.14206,-0.331417 0.10822,-0.138018 0.20938,-0.253178 0.30408,-0.345196 0.64925,-0.634906 1.27163,-1.232889 1.86678,-1.794191 0.59515,-0.570497 1.24484,-1.154748 1.94819,-1.75285 0.85216,0.837344 1.56847,1.559637 2.15009,2.166948 0.59515,0.598101 1.06256,1.07635 1.40071,1.435215 0.13525,0.147226 0.27016,0.308855 0.40543,0.483687 0.13525,0.17483 0.20271,0.303721 0.20271,0.386537 0,0.193235 -0.216,0.312279 -0.64884,0.358287 -0.41932,0.04601 -0.93327,0.09248 -1.54195,0.138492 v 0.910875 H 120 v -0.910875 c -0.83862,-0.0368 -1.50114,-0.170276 -1.98808,-0.400317 -0.47342,-0.239243 -0.90626,-0.561819 -1.29852,-0.966686 -0.78452,-0.800546 -1.56187,-1.577775 -2.33286,-2.332312 -0.77099,-0.75453 -1.77242,-1.720875 -3.0033,-2.89868 1.10915,-0.993773 1.96843,-1.766431 2.57711,-2.318531 0.6222,-0.552099 1.15622,-1.016613 1.60259,-1.393874 0.40579,-0.33126 0.89968,-0.62109 1.4813,-0.869536 0.58163,-0.2576458 1.39268,-0.4787976 2.4342,-0.6628309 V 8.4765048 h -7.38487 v 0.8833141 c 0.4193,0.046011 0.85856,0.1291194 1.31846,0.2487343 0.4734,0.1104257 0.71032,0.2622032 0.71032,0.4554388 0,0.09201 -0.0273,0.188167 -0.0815,0.289386 -0.0541,0.09203 -0.1079,0.170545 -0.162,0.234953 -0.52752,0.533697 -1.10893,1.09505 -1.74466,1.683949 -0.6222,0.588906 -1.16988,1.103778 -1.6433,1.545459 -0.73041,-0.726932 -1.41383,-1.416487 -2.04956,-2.069797 -0.6222,-0.653319 -1.08236,-1.13683 -1.37994,-1.449687 -0.12173,-0.119609 -0.22291,-0.230196 -0.30406,-0.3314142 -0.0811,-0.1012121 -0.12213,-0.1927892 -0.12213,-0.2756056 0,-0.1288254 0.20959,-0.2119253 0.62891,-0.2487344 0.41931,-0.036809 0.84574,-0.055116 1.27858,-0.055116 v -0.91088 z M 41.30766,9.1393354 c 1.103982,0 2.03849,0.1746763 2.803914,0.5243399 0.765427,0.3404507 1.383289,0.7958207 1.854321,1.3663127 0.441594,0.533698 0.772828,1.187305 0.993624,1.960245 0.220796,0.763727 0.331485,1.490603 0.331485,2.180728 0,1.959933 -0.537189,3.49611 -1.611731,4.609502 -1.074529,1.11339 -2.531654,1.670169 -4.371613,1.670169 -1.118687,0 -2.060916,-0.165529 -2.826343,-0.496779 -0.750694,-0.340461 -1.376294,-0.804968 -1.876752,-1.393876 -0.500472,-0.588895 -0.868604,-1.256248 -1.104118,-2.001584 -0.220798,-0.754526 -0.331486,-1.573672 -0.331486,-2.457022 0,-0.671722 0.09609,-1.365848 0.287453,-2.083578 0.191356,-0.717719 0.522605,-1.357612 0.993623,-1.918902 0.500473,-0.607312 1.147531,-1.085563 1.942384,-1.4352157 0.809587,-0.3496636 1.781832,-0.5243399 2.915239,-0.5243399 z" />
  </g>
</svg>
